<svg id="Capa_1" enable-background="new 0 0 512 512" height="512" viewBox="0 0 512 512" width="512" xmlns="http://www.w3.org/2000/svg"><g><path d="m221.37 187.865c2.884-2.973 2.812-7.721-.161-10.605-9.49-9.205-24.958-9.208-34.481-.011-2.979 2.878-3.061 7.626-.184 10.605 1.472 1.523 3.432 2.289 5.395 2.289 1.875 0 3.754-.699 5.209-2.105 3.765-3.636 9.873-3.642 13.616-.011 2.973 2.884 7.721 2.813 10.606-.162z"/><path d="m295.787 190.144c1.881 0 3.765-.703 5.222-2.117 3.743-3.631 9.832-3.63 13.576.001 2.973 2.884 7.721 2.812 10.605-.162 2.884-2.973 2.812-7.721-.161-10.605-9.502-9.217-24.963-9.218-34.464.001-2.973 2.884-3.045 7.632-.161 10.605 1.47 1.515 3.426 2.277 5.383 2.277z"/><path d="m255.887 251.973c8.582 0 16.652-3.343 22.721-9.412 2.929-2.929 2.928-7.678 0-10.606-2.93-2.928-7.678-2.929-10.607.001-3.235 3.235-7.538 5.018-12.113 5.018-4.576 0-8.878-1.782-12.114-5.018-2.929-2.929-7.678-2.93-10.606-.001-2.929 2.929-2.929 7.678 0 10.606 6.067 6.07 14.136 9.412 22.719 9.412z"/><path d="m294.422 107.813c.299.035.596.053.89.053 3.749 0 6.988-2.806 7.439-6.62.486-4.113-2.454-7.843-6.567-8.329-34.208-4.046-66.9-23.962-79.188-36.811-2.863-2.995-7.611-3.099-10.604-.237-2.994 2.863-3.1 7.61-.237 10.604 16.152 16.89 52.576 37.119 88.267 41.34z"/><path d="m474.728 491.311-10.416-59.51c-.714-4.08-4.606-6.81-8.681-6.095-4.08.714-6.809 4.601-6.095 8.681l10.414 59.498c.002.014.005.027.007.041.266 1.547-.903 2.96-2.47 3.035-.533.025-52.657.033-52.657.033v-31.795c0-4.106-3.164-7.687-7.269-7.811-4.247-.127-7.731 3.277-7.731 7.497v32.108l-96.656-.014s58.816-88.603 59.133-89.086c4.16-6.322 6.365-10.844 1.92-20.312 0 0-6.42-13.668-6.529-13.94.155-.225 10.334-12.972 10.334-12.972 4.585-5.27 6.495-12.792 5.139-20.224l-2.588-22.488c38.7 13.817 74.926 36.082 82.692 80.569.636 3.645 3.803 6.211 7.379 6.211.995 0 2.022-.195 3.032-.635 3.225-1.404 4.93-4.973 4.316-8.436-12.596-71.1-86.774-92.217-139.091-105.502v-16.824c23.668-17.373 43.106-42.391 52.236-68.625 20.303-2.056 39.262-14.341 39.262-35.846v-10.9c0-11.169-7.303-20.648-17.342-23.831 14.254-13.492 22.573-34.004 24.801-61.298l.033-.39c.555-6.662.993-11.925-3.917-15.048-4.974-3.164-10.229-.151-14.073 2.054-7.708 4.434-15.745 7.658-23.692 9.568 16.142-18.831 21.271-41.497 19.094-54.71-.392-2.393-1.047-6.397-4.859-8.539-3.667-2.06-7.065-.684-9.095.14-.448.181-.968.394-1.58.613-32.387 11.491-61.37 5.447-89.397-.396-20.245-4.222-39.37-8.209-57.921-4.917-20.133 3.572-36.328 15.02-50.688 35.913-11.796-.185-21.706 3.281-29.407 10.325-14.734 13.478-16.934 36.315-16.934 48.728v36.812h-9.063c-13.661 0-24.775 11.203-24.775 24.974v10.9c0 21.503 18.955 33.788 39.255 35.846 9.003 25.793 28.113 50.926 52.242 68.642v16.806c-52.374 13.306-126.661 34.466-139.14 105.779l-16.68 95.382c-.729 4.212-1.235 10.364 2.777 15.132 4.112 4.887 10.552 5.546 16.31 5.546h399.285c5.757 0 12.198-.659 16.31-5.545 4.013-4.767 3.507-10.92 2.775-15.144zm-358.135-322.442v-10.9c0-5.407 4.477-9.975 9.775-9.975h9.063v27.08c0 4.399.422 8.961 1.231 13.641.007.049.002.098.011.147-11.01-2.576-20.08-9.365-20.08-19.993zm228.299 143.933 3.408 29.621c.022.193.052.386.089.576.594 3.051-.047 5.993-1.716 7.871-.089.1-.176.202-.259.308l-9.426 11.825c-5.848 6.873-5.139 12.31-2.281 18.328 0 0 6.895 14.955 6.956 15.247-.266.604-39.786 60.174-39.786 60.174 13.47-50.813 16.709-93.106 17.007-151.118 8.415 2.157 17.184 4.493 26.008 7.168zm-40.981-16.773c0 26.403-21.493 47.883-47.91 47.883-26.418 0-47.911-21.48-47.911-47.883v-13.032c5.572 3.092 11.248 5.729 16.977 7.852 11.35 4.224 21.179 6.191 30.933 6.191 9.755 0 19.584-1.968 30.925-6.188 5.764-2.137 11.447-4.781 16.986-7.858zm91.497-138.061v10.9c0 10.629-9.071 17.418-20.08 19.993.019-.111.028-.222.043-.333.787-4.612 1.199-9.113 1.199-13.454v-27.08h9.092c5.283 0 9.746 4.567 9.746 9.974zm-244.977-61.786c0-8.007 1.175-27.704 12.059-37.66 5.507-5.038 12.862-7.074 22.493-6.212 2.771.234 5.46-1.065 6.97-3.408 27.253-42.285 55.822-36.329 95.366-28.085 27.602 5.755 58.753 12.249 93.496 1.187-.403 13.462-8.764 34.689-28.663 48.818-24.332-1.285-48.873-8.829-61.25-16.017-3.582-2.08-8.171-.863-10.252 2.719-2.08 3.582-.863 8.172 2.719 10.252 12.124 7.041 30.221 12.804 48.61 15.86 8.085 1.344 24.059 2.344 24.117 2.344.022 0 14.892-.399 22.485-2.122 8.07-1.831 16.178-4.788 24.017-8.798-3.186 30.574-14.739 49.59-35.239 58.039-.106.017-.214.028-.318.049-44.347 4.002-112.546-1.248-160.928-29.17-5.104-2.954-10.727-4.425-16.638-4.425-7.323 0-15.087 2.257-22.856 6.745-5.579 3.223-11.09 7.563-16.187 12.675v-22.791zm3.168 99.233c-2.103-7.16-3.168-14.004-3.168-20.342v-32.396c12.678-19.418 33.703-34.089 48.174-25.713 41.766 24.104 96.982 32.353 141.193 32.352 7.629 0 14.923-.25 21.772-.702v26.459c0 6.338-1.066 13.182-3.165 20.333-10.164 34.448-42.419 68.673-76.703 81.384-9.622 3.582-17.789 5.25-25.701 5.25s-16.078-1.668-25.711-5.254c-8.654-3.206-17.205-7.727-25.423-13.443-24.177-16.781-43.824-42.816-51.268-67.928zm-31.4 301.576v-31.793c0-4.106-3.164-7.687-7.269-7.811-4.247-.127-7.731 3.277-7.731 7.497v32.11s-52.161-.008-52.696-.034c-1.562-.075-2.726-1.482-2.462-3.023.002-.013.005-.027.007-.04l16.677-95.369c7.783-44.478 44.002-66.745 82.691-80.565l-2.619 22.757c-.959 8.439 1.106 15.434 6.313 21.377 0 0 9.053 11.33 9.207 11.553-.108.277-6.508 13.915-6.508 13.915-4.494 9.49-2.269 14.024 1.93 20.366.315.477 59.089 89.048 59.089 89.048zm133.8-.019-17.85.002c-11.825-34.432-19.151-63.061-23.6-92.166-.625-4.094-4.453-6.898-8.547-6.28-4.095.626-6.906 4.453-6.281 8.547 2.504 16.381 5.889 32.591 10.408 49.667 0 0-39.506-59.546-39.78-60.156.065-.3 6.981-15.272 6.981-15.272 2.285-4.885 4.172-10.729-2.326-18.321l-8.278-10.391c-.084-.105-.17-.208-.26-.309-2.068-2.327-3.33-4.898-2.765-9.87l3.408-29.617c8.824-2.677 17.594-5.014 26.01-7.172.155 27.098.987 48.334 2.645 67.843.333 3.912 3.61 6.865 7.465 6.865.212 0 .427-.009.644-.027 4.127-.351 7.188-3.98 6.838-8.107-.917-10.789-1.576-22.141-2.004-34.781 11.539 13.155 28.457 21.485 47.295 21.485 18.855 0 35.786-8.345 47.326-21.522-1.832 55.8-8.663 99.019-29.475 159.584z"/></g></svg>